#!OML:ASF F:\VICON\USERDATA\INSTALL\rory3\rory3.ASF
:FULLY-SPECIFIED
:DEGREES
285
root 0.610021 17.9113 -0.404127 1.12688 -30.7239 3.43516
lowerback 2.73877 -1.4975 -4.52266
upperback -0.686481 -2.10332 3.04164
thorax -1.96878 -0.981422 5.78647
lowerneck -28.6872 -0.85764 -10.0007
upperneck -10.5581 1.45126 7.32863
head 0.884103 1.15384 4.07031
rclavicle -5.76476e-014 -1.59028e-015
rhumerus -33.8904 -7.18062 -70.5376
rradius 38.6646
rwrist 14.7847
rhand -26.7779 11.9225
rfingers 7.12502
rthumb -0.205556 -18.0572
lclavicle -5.76476e-014 -1.59028e-015
lhumerus 65.29 15.2598 46.7622
lradius 95.5843
lwrist -3.80147
lhand -40.6138 20.7123
lfingers 7.12502
lthumb -13.5594 50.2508
rfemur -10.6976 2.84595 8.73801
rtibia 26.0519
rfoot -16.6635 -9.22707
rtoes -0.0831633
lfemur -0.141943 2.02663 -25.4195
ltibia 12.5879
lfoot -10.2663 6.31402
ltoes -12.6184
286
root 0.607559 17.9104 -0.395425 1.13357 -30.7082 3.4666
lowerback 2.66012 -1.50896 -4.47431
upperback -0.724512 -2.1147 3.00738
thorax -1.96528 -0.987034 5.72129
lowerneck -28.6904 -0.840547 -9.99771
upperneck -10.4201 1.47275 7.36757
head 0.926211 1.16625 4.0842
rclavicle 3.93097e-014 -7.95139e-016
rhumerus -33.9942 -7.02255 -70.6089
rradius 38.7597
rwrist 14.639
rhand -26.8194 11.84
rfingers 7.12502
rthumb -0.245646 -18.1396
lclavicle 3.93097e-014 -7.95139e-016
lhumerus 65.1925 15.255 46.6949
lradius 95.5716
lwrist -3.75465
lhand -40.5204 20.5028
lfingers 7.12502
lthumb -13.4694 50.0472
rfemur -10.6663 2.80937 8.69159
rtibia 26.0225
rfoot -16.6748 -9.16737
rtoes 0.00872812
lfemur -0.124005 2.03701 -25.4609
ltibia 12.5844
lfoot -10.3062 6.29279
ltoes -12.5351
287
root 0.606342 17.9112 -0.38995 1.08827 -30.678 3.53262
lowerback 2.69369 -1.52503 -4.51418
upperback -0.774814 -2.13883 3.00699
thorax -2.03168 -0.995351 5.74692
lowerneck -28.5345 -0.803744 -10.0157
upperneck -10.4995 1.51359 7.33611
head 0.879611 1.18395 4.07829
rclavicle -1.14003e-013 -3.97569e-015
rhumerus -34.078 -6.80423 -70.6263
rradius 38.8227
rwrist 14.4148
rhand -26.8026 11.9069
rfingers 7.12502
rthumb -0.229398 -18.0727
lclavicle -1.14003e-013 -3.97569e-015
lhumerus 65.0516 15.2702 46.6635
lradius 95.5341
lwrist -3.83476
lhand -40.3486 20.6202
lfingers 7.12502
lthumb -13.3038 50.1756
rfemur -10.6137 2.72977 8.61837
rtibia 26.0029
rfoot -16.6291 -9.13283
rtoes -0.247774
lfemur -0.0756854 2.0253 -25.5299
ltibia 12.5577
lfoot -10.3137 6.28197
ltoes -12.5607
288
root 0.605043 17.9103 -0.384438 1.02253 -30.6265 3.55926
lowerback 2.71128 -1.52708 -4.51273
upperback -0.774536 -2.14213 3.00683
thorax -2.04091 -0.996734 5.74668
lowerneck -28.3826 -0.79128 -9.99491
upperneck -10.6626 1.51224 7.25084
head 0.810723 1.17762 4.04533
rclavicle 5.71506e-014 3.97569e-015
rhumerus -34.0758 -6.81963 -70.5824
rradius 38.8002
rwrist 14.2903
rhand -26.7185 12.0677
rfingers 7.12502
rthumb -0.148183 -17.912
lclavicle 5.71506e-014 3.97569e-015
lhumerus 65.0159 15.2344 46.6657
lradius 95.5279
lwrist -3.83578
lhand -40.2955 20.6915
lfingers 7.12502
lthumb -13.2527 50.2502
rfemur -10.5124 2.67212 8.59087
rtibia 25.9875
rfoot -16.6356 -9.11844
rtoes -0.33308
lfemur 0.01091 2.0147 -25.5492
ltibia 12.5356
lfoot -10.339 6.22413
ltoes -12.1155
289
root 0.604297 17.9095 -0.379327 0.965955 -30.529 3.60985
lowerback 2.69546 -1.55365 -4.50302
upperback -0.759713 -2.17714 2.97671
thorax -2.0135 -1.0157 5.70971
lowerneck -28.3617 -0.782959 -9.9652
upperneck -10.6839 1.51281 7.2259
head 0.801774 1.17582 4.03222
rclavicle 1.04362e-013 1.43125e-014
rhumerus -34.0353 -6.8458 -70.6002
rradius 38.8198
rwrist 14.2942
rhand -26.5963 11.8889
rfingers 7.12502
rthumb -0.0302221 -18.0908
lclavicle 1.04362e-013 1.43125e-014
lhumerus 65.0094 15.2317 46.6404
lradius 95.5242
lwrist -3.82077
lhand -40.2952 20.7014
lfingers 7.12502
lthumb -13.2523 50.2601
rfemur -10.4269 2.60289 8.5436
rtibia 25.9904
rfoot -16.6713 -9.15748
rtoes -0.347168
lfemur 0.0745401 2.02961 -25.6011
ltibia 12.5086
lfoot -10.3382 6.15505
ltoes -12.1265
290
root 0.604219 17.9082 -0.377282 0.918072 -30.4553 3.66321
lowerback 2.72609 -1.58926 -4.50536
upperback -0.744582 -2.22651 2.93321
thorax -2.01015 -1.04098 5.66778
lowerneck -28.5069 -0.741156 -9.88616
upperneck -10.567 1.55351 7.21922
head 0.852432 1.19462 4.02221
rclavicle -7.25564e-014 -2.8625e-014
rhumerus -33.9855 -6.75399 -70.7101
rradius 38.8616
rwrist 14.2149
rhand -26.4705 11.6592
rfingers 7.12502
rthumb 0.0913564 -18.3206
lclavicle -7.25564e-014 -2.8625e-014
lhumerus 64.9913 15.2767 46.5511
lradius 95.4991
lwrist -3.84329
lhand -40.3486 20.6084
lfingers 7.12502
lthumb -13.3038 50.1638
rfemur -10.3802 2.5775 8.49033
rtibia 26.0015
rfoot -16.7141 -9.15797
rtoes -0.269391
lfemur 0.123085 1.98328 -25.6539
ltibia 12.4802
lfoot -10.3332 6.14651
ltoes -12.3229
291
root 0.602637 17.9076 -0.377874 0.873204 -30.4372 3.71241
lowerback 2.80142 -1.56819 -4.55363
upperback -0.782688 -2.20272 2.94293
thorax -2.093 -1.02489 5.70853
lowerneck -28.4745 -0.78027 -9.99559
upperneck -10.5409 1.53401 7.24432
head 0.85718 1.18956 4.04603
rclavicle -5.31252e-014 -1.03368e-014
rhumerus -34.0315 -6.74155 -70.6334
rradius 38.8409
rwrist 14.2241
rhand -26.4817 11.6446
rfingers 7.12502
rthumb 0.0804686 -18.3351
lclavicle -5.31252e-014 -1.03368e-014
lhumerus 64.9283 15.2098 46.59
lradius 95.4723
lwrist -3.93344
lhand -40.4982 20.4156
lfingers 7.12502
lthumb -13.448 49.9614
rfemur -10.3796 2.58225 8.44974
rtibia 26.0413
rfoot -16.7507 -9.15764
rtoes -0.467546
lfemur 0.183987 2.00889 -25.6933
ltibia 12.393
lfoot -10.2985 6.12465
ltoes -12.6723
292
root 0.601121 17.9077 -0.375514 0.878697 -30.4096 3.73147
lowerback 2.79909 -1.55008 -4.55381
upperback -0.831554 -2.17844 2.95023
thorax -2.14521 -1.00989 5.71659
lowerneck -28.3292 -0.793013 -10.0185
upperneck -10.5952 1.51386 7.15781
head 0.823803 1.17572 4.01818
rclavicle 4.4975e-014 -8.74653e-015
rhumerus -34.0657 -6.83033 -70.5473
rradius 38.747
rwrist 14.3006
rhand -26.7064 11.7758
rfingers 7.12502
rthumb -0.136563 -18.2039
lclavicle 4.4975e-014 -8.74653e-015
lhumerus 64.8479 15.1282 46.6079
lradius 95.5022
lwrist -3.87072
lhand -40.5907 20.4299
lfingers 7.12502
lthumb -13.5372 49.9698
rfemur -10.3959 2.54224 8.43238
rtibia 26.0863
rfoot -16.7834 -9.14364
rtoes -0.263005
lfemur 0.227044 1.95966 -25.7079
ltibia 12.2853
lfoot -10.2443 6.10555
ltoes -12.3889
293
root 0.599301 17.9084 -0.37239 0.921402 -30.3696 3.72366
lowerback 2.74417 -1.56032 -4.53756
upperback -0.857758 -2.18957 2.95198
thorax -2.14047 -1.01523 5.70815
lowerneck -28.2454 -0.741553 -9.87623
upperneck -10.6439 1.53078 6.96837
head 0.797175 1.1711 3.93393
rclavicle -6.45056e-014 -2.06736e-014
rhumerus -34.0803 -6.83992 -70.5492
rradius 38.7638
rwrist 14.31
rhand -26.9391 11.861
rfingers 7.12502
rthumb -0.361237 -18.1185
lclavicle -6.45056e-014 -2.06736e-014
lhumerus 64.7645 15.1172 46.5547
lradius 95.5487
lwrist -3.79152
lhand -40.6391 20.4651
lfingers 7.12502
lthumb -13.5839 50.002
rfemur -10.4234 2.52591 8.43591
rtibia 26.119
rfoot -16.8172 -9.15586
rtoes -0.284299
lfemur 0.233687 1.86126 -25.6896
ltibia 12.2
lfoot -10.2239 6.10225
ltoes -11.893
294
root 0.597475 17.9095 -0.369048 0.987681 -30.3425 3.68091
lowerback 2.68008 -1.54319 -4.47761
upperback -0.870464 -2.1623 2.94932
thorax -2.12332 -1.00266 5.66811
lowerneck -28.2444 -0.748586 -9.83934
upperneck -10.6264 1.51148 6.90853
head 0.803803 1.1584 3.90695
rclavicle 5.72003e-014 -3.18055e-015
rhumerus -34.1058 -6.94767 -70.5024
rradius 38.8115
rwrist 14.3566
rhand -26.9102 11.9482
rfingers 7.12502
rthumb -0.333349 -18.0313
lclavicle 5.72003e-014 -3.18055e-015
lhumerus 64.7786 15.0765 46.5815
lradius 95.5324
lwrist -3.76952
lhand -40.5962 20.4262
lfingers 7.12502
lthumb -13.5424 49.9658
rfemur -10.4526 2.53153 8.47676
rtibia 26.1258
rfoot -16.801 -9.1987
rtoes -0.620084
lfemur 0.220851 1.8384 -25.6461
ltibia 12.1534
lfoot -10.2107 6.07878
ltoes -11.7582
